<svg width="60" height="60" viewBox="0 0 60 60" fill="none" xmlns="http://www.w3.org/2000/svg">
<path d="M0.88334 58.9517C0.446136 57.6033 0.235631 56.6905 0.251824 56.2133C0.385414 52.1639 0.00893305 48.2352 0.00083669 43.9566C-0.0194042 34.8928 0.332787 27.6546 0.494715 18.4862C0.608064 11.8713 0.757846 6.81659 1.01288 2.5179C1.11813 0.764646 2.13423 -0.136107 3.90733 0.0166996C7.82597 0.354482 11.1833 0.544821 13.9792 0.587714C18.6562 0.657415 22.0297 0.80218 24.0996 1.02201C24.8958 1.10511 28.473 1.27936 34.8314 1.54476C38.7986 1.70829 43.319 2.0367 48.3928 2.52997C49.0864 2.59699 51.2332 2.64122 54.8334 2.66266C58.0315 2.68277 60.0313 3.4468 59.8289 6.84071C59.6346 10.0456 60.0677 13.6326 59.922 16.6525C59.6386 22.4833 60.0718 28.7202 59.841 34.6957C59.7601 36.7841 59.6696 41.4889 59.5698 48.8102C59.5509 50.038 59.5873 51.1546 59.6791 52.1599C59.8977 54.6249 60.2215 56.2495 59.7803 58.3727C59.3633 60.3954 57.995 60.0013 56.0357 59.9048C53.6959 59.7841 51.0848 59.6112 48.9474 59.5831C35.2942 59.4088 25.7877 59.2962 20.4279 59.2453C15.1491 59.193 8.79753 59.4624 3.14627 59.4906C2.23948 59.4933 1.57828 59.4115 1.16266 59.2453C1.09693 59.2203 1.0377 59.1809 0.989356 59.1301C0.941007 59.0793 0.904775 59.0183 0.88334 58.9517ZM52.19 7.59268C41.1492 6.75091 30.5808 6.0043 20.4846 5.35286C15.5377 5.03519 10.1172 4.93466 5.37682 5.06736C5.27514 5.06946 5.17835 5.11148 5.10721 5.18441C5.03607 5.25733 4.99624 5.35534 4.99629 5.45742C4.99899 14.8617 5.05701 21.608 5.17036 25.6962C5.22973 27.8489 5.22164 29.7014 5.14607 31.2536C4.99764 34.3365 4.93692 36.1916 4.9639 36.8189C5.08535 39.6499 4.68053 43.9486 4.75745 47.0087C4.82761 49.652 4.8681 51.8637 4.87889 53.6437C4.87942 53.7018 4.89146 53.7592 4.91433 53.8127C4.9372 53.8662 4.97045 53.9146 5.01217 53.9553C5.0539 53.996 5.10329 54.0282 5.15752 54.0499C5.21175 54.0717 5.26976 54.0826 5.32824 54.082C7.51156 54.0633 9.62066 53.9694 11.6555 53.8006C13.2532 53.6692 15.7159 53.6719 19.0435 53.8086C24.5193 54.0338 30.6928 54.3796 37.5639 54.8461C38.6488 54.9185 40.8915 54.9386 42.5553 54.8581C46.4254 54.6705 50.3845 54.7643 54.4326 55.1396C54.5031 55.1463 54.5742 55.1391 54.6418 55.1184C54.7095 55.0977 54.7723 55.064 54.8268 55.0192C54.8814 54.9744 54.9264 54.9193 54.9595 54.8572C54.9926 54.7951 55.013 54.7271 55.0196 54.6571C55.0412 54.4078 55.0507 54.2255 55.048 54.1102C54.6998 45.1187 54.3881 37.6031 54.6067 28.4508C54.7794 21.3037 54.8752 17.4701 54.8941 16.9501C54.963 15.04 54.5986 12.4825 54.6391 11.1917C54.6796 9.87272 54.7646 9.25747 55.0237 7.97872C55.0343 7.92444 55.0323 7.86845 55.0177 7.81507C55.0032 7.76169 54.9765 7.71233 54.9398 7.67079C54.903 7.62924 54.8572 7.59661 54.8058 7.5754C54.7543 7.55419 54.6987 7.54498 54.6432 7.54845C53.5825 7.62351 52.7648 7.63826 52.19 7.59268Z" fill="#FFB60E"/>
<path d="M13.4206 47.7284C13.1669 47.5435 13.0279 47.2754 13.0037 46.9242C12.8579 44.9819 12.7689 42.4727 12.8093 40.9487C13.0171 33.4343 13.0037 25.6238 12.7689 17.517C12.7324 16.2262 12.9105 15.0882 14.1736 14.4729C14.9805 14.0815 15.8617 13.9341 16.817 14.0306C19.7479 14.3308 22.583 14.4555 25.3223 14.4046C32.6252 14.2705 37.1794 14.2678 38.9849 14.3965C40.1211 14.4769 42.4542 14.686 45.9842 15.0238C46.2172 15.0454 46.4395 15.1319 46.6256 15.2734C46.8118 15.4149 46.9542 15.6058 47.0367 15.8241C47.4739 16.9942 47.8018 18.1684 47.7775 19.4954C47.7573 20.6013 47.6884 21.9001 47.8747 23.2834C48.2417 26.0286 48.3267 28.8944 48.1297 31.8808C47.8733 35.776 47.451 40.2007 46.8626 45.1548C46.7493 46.1065 46.2473 46.7111 45.3567 46.9684C43.8508 47.4027 41.7133 47.6319 39.8066 47.644C27.1143 47.7244 18.744 47.829 14.6958 47.9576C14.0832 47.9791 13.6581 47.9027 13.4206 47.7284ZM16.7927 18.0679C16.6497 20.8131 16.701 23.3772 16.9466 25.7605C17.4998 31.1623 17.4647 36.7827 16.8413 42.6215C16.8339 42.6888 16.8409 42.7568 16.8617 42.8213C16.8826 42.8857 16.9168 42.9451 16.9622 42.9955C17.0077 43.046 17.0633 43.0863 17.1254 43.114C17.1876 43.1417 17.2549 43.1561 17.3231 43.1563H41.4178C41.5023 43.1563 41.586 43.1398 41.6641 43.1076C41.7422 43.0755 41.8132 43.0284 41.873 42.969C41.9327 42.9097 41.9801 42.8392 42.0125 42.7616C42.0448 42.684 42.0615 42.6009 42.0615 42.5169C42.0507 38.8308 42.1613 34.768 42.3934 30.3286C42.5176 27.9186 42.6498 26.0165 42.7902 24.6225C43.0465 22.073 43.1531 20.1549 43.11 18.8681C43.109 18.8115 43.0862 18.7575 43.0462 18.7171C43.0063 18.6767 42.9523 18.653 42.8954 18.651C40.4503 18.5652 37.931 18.5826 35.3375 18.7032C32.5766 18.8279 26.9213 18.1604 22.9743 18.08C22.3914 18.0679 21.9137 18.2569 21.4036 18.0759C21.2471 18.0196 20.9205 17.966 20.424 17.9151C19.3957 17.8132 18.3365 17.7301 17.2461 17.6658C17.1894 17.6625 17.1326 17.6703 17.079 17.6888C17.0254 17.7073 16.9761 17.7361 16.934 17.7735C16.8918 17.8109 16.8576 17.8562 16.8333 17.9067C16.8091 17.9573 16.7953 18.0121 16.7927 18.0679Z" fill="#FFB60E"/>
<path d="M24.3278 36.0541C23.8691 36.0541 23.5065 35.9208 23.2398 35.6541C22.9731 35.3874 22.8398 35.0248 22.8398 34.5661V26.2941C22.9571 26.2728 23.1438 26.2461 23.3998 26.2141C23.6558 26.1714 23.9011 26.1501 24.1358 26.1501C24.3811 26.1501 24.5945 26.1714 24.7758 26.2141C24.9678 26.2461 25.1278 26.3101 25.2558 26.4061C25.3838 26.5021 25.4798 26.6354 25.5438 26.8061C25.6078 26.9768 25.6398 27.2008 25.6398 27.4781V33.7981H29.3038C29.3785 33.9154 29.4478 34.0754 29.5118 34.2781C29.5758 34.4701 29.6078 34.6728 29.6078 34.8861C29.6078 35.3128 29.5171 35.6168 29.3358 35.7981C29.1545 35.9688 28.9145 36.0541 28.6158 36.0541H24.3278Z" fill="white"/>
<path d="M35.3261 25.9848C35.7847 25.9867 36.1468 26.1216 36.4124 26.3893C36.678 26.6571 36.8098 27.0203 36.8079 27.479L36.7735 35.7509C36.6561 35.7718 36.4693 35.7977 36.2132 35.8286C35.957 35.8702 35.7116 35.8905 35.4769 35.8895C35.2316 35.8885 35.0183 35.8663 34.8372 35.8229C34.6453 35.7901 34.4856 35.7254 34.358 35.6289C34.2304 35.5323 34.1349 35.3986 34.0716 35.2277C34.0083 35.0567 33.9773 34.8326 33.9784 34.5553L34.0047 28.2353L30.3407 28.2201C30.2666 28.1025 30.1979 27.9422 30.1347 27.7392C30.0715 27.547 30.0404 27.3442 30.0413 27.1309C30.043 26.7042 30.135 26.4006 30.3171 26.22C30.4991 26.0501 30.7394 25.9657 31.0381 25.967L35.3261 25.9848Z" fill="white"/>
</svg>
