<svg width="262" height="60" viewBox="0 0 262 60" fill="none" xmlns="http://www.w3.org/2000/svg">
<path d="M0.88334 58.9517C0.446136 57.6033 0.235631 56.6905 0.251824 56.2133C0.385414 52.1639 0.00893305 48.2352 0.00083669 43.9566C-0.0194042 34.8928 0.332787 27.6546 0.494715 18.4862C0.608064 11.8713 0.757846 6.81659 1.01288 2.5179C1.11813 0.764646 2.13423 -0.136107 3.90733 0.0166996C7.82597 0.354482 11.1833 0.544821 13.9792 0.587714C18.6562 0.657415 22.0297 0.80218 24.0996 1.02201C24.8958 1.10511 28.473 1.27936 34.8314 1.54476C38.7986 1.70829 43.319 2.0367 48.3928 2.52997C49.0864 2.59699 51.2332 2.64122 54.8334 2.66266C58.0315 2.68277 60.0313 3.4468 59.8289 6.84071C59.6346 10.0456 60.0677 13.6326 59.922 16.6525C59.6386 22.4833 60.0718 28.7202 59.841 34.6957C59.7601 36.7841 59.6696 41.4889 59.5698 48.8102C59.5509 50.038 59.5873 51.1546 59.6791 52.1599C59.8977 54.6249 60.2215 56.2495 59.7803 58.3727C59.3633 60.3954 57.995 60.0013 56.0357 59.9048C53.6959 59.7841 51.0848 59.6112 48.9474 59.5831C35.2942 59.4088 25.7877 59.2962 20.4279 59.2453C15.1491 59.193 8.79753 59.4624 3.14627 59.4906C2.23948 59.4933 1.57828 59.4115 1.16266 59.2453C1.09693 59.2203 1.0377 59.1809 0.989356 59.1301C0.941007 59.0793 0.904775 59.0183 0.88334 58.9517ZM52.19 7.59268C41.1492 6.75091 30.5808 6.0043 20.4846 5.35286C15.5377 5.03519 10.1172 4.93466 5.37682 5.06736C5.27514 5.06946 5.17835 5.11148 5.10721 5.18441C5.03607 5.25733 4.99624 5.35534 4.99629 5.45742C4.99899 14.8617 5.05701 21.608 5.17036 25.6962C5.22973 27.8489 5.22164 29.7014 5.14607 31.2536C4.99764 34.3365 4.93692 36.1916 4.9639 36.8189C5.08535 39.6499 4.68053 43.9486 4.75745 47.0087C4.82761 49.652 4.8681 51.8637 4.87889 53.6437C4.87942 53.7018 4.89146 53.7592 4.91433 53.8127C4.9372 53.8662 4.97045 53.9146 5.01217 53.9553C5.0539 53.996 5.10329 54.0282 5.15752 54.0499C5.21175 54.0717 5.26976 54.0826 5.32824 54.082C7.51156 54.0633 9.62066 53.9694 11.6555 53.8006C13.2532 53.6692 15.7159 53.6719 19.0435 53.8086C24.5193 54.0338 30.6928 54.3796 37.5639 54.8461C38.6488 54.9185 40.8915 54.9386 42.5553 54.8581C46.4254 54.6705 50.3845 54.7643 54.4326 55.1396C54.5031 55.1463 54.5742 55.1391 54.6418 55.1184C54.7095 55.0977 54.7723 55.064 54.8268 55.0192C54.8814 54.9744 54.9264 54.9193 54.9595 54.8572C54.9926 54.7951 55.013 54.7271 55.0196 54.6571C55.0412 54.4078 55.0507 54.2255 55.048 54.1102C54.6998 45.1187 54.3881 37.6031 54.6067 28.4508C54.7794 21.3037 54.8752 17.4701 54.8941 16.9501C54.963 15.04 54.5986 12.4825 54.6391 11.1917C54.6796 9.87272 54.7646 9.25747 55.0237 7.97872C55.0343 7.92444 55.0323 7.86845 55.0177 7.81507C55.0032 7.76169 54.9765 7.71233 54.9398 7.67079C54.903 7.62924 54.8572 7.59661 54.8058 7.5754C54.7543 7.55419 54.6987 7.54498 54.6432 7.54845C53.5825 7.62351 52.7648 7.63826 52.19 7.59268Z" fill="#FFB60E"/>
<path d="M13.4206 47.7284C13.1669 47.5435 13.0279 47.2754 13.0037 46.9242C12.8579 44.9819 12.7689 42.4727 12.8093 40.9487C13.0171 33.4343 13.0037 25.6238 12.7689 17.517C12.7324 16.2262 12.9105 15.0882 14.1736 14.4729C14.9805 14.0815 15.8617 13.9341 16.817 14.0306C19.7479 14.3308 22.583 14.4555 25.3223 14.4046C32.6252 14.2705 37.1794 14.2678 38.9849 14.3965C40.1211 14.4769 42.4542 14.686 45.9842 15.0238C46.2172 15.0454 46.4395 15.1319 46.6256 15.2734C46.8118 15.4149 46.9542 15.6058 47.0367 15.8241C47.4739 16.9942 47.8018 18.1684 47.7775 19.4954C47.7573 20.6013 47.6884 21.9001 47.8747 23.2834C48.2417 26.0286 48.3267 28.8944 48.1297 31.8808C47.8733 35.776 47.451 40.2007 46.8626 45.1548C46.7493 46.1065 46.2473 46.7111 45.3567 46.9684C43.8508 47.4027 41.7133 47.6319 39.8066 47.644C27.1143 47.7244 18.744 47.829 14.6958 47.9576C14.0832 47.9791 13.6581 47.9027 13.4206 47.7284ZM16.7927 18.0679C16.6497 20.8131 16.701 23.3772 16.9466 25.7605C17.4998 31.1623 17.4647 36.7827 16.8413 42.6215C16.8339 42.6888 16.8409 42.7568 16.8617 42.8213C16.8826 42.8857 16.9168 42.9451 16.9622 42.9955C17.0077 43.046 17.0633 43.0863 17.1254 43.114C17.1876 43.1417 17.2549 43.1561 17.3231 43.1563H41.4178C41.5023 43.1563 41.586 43.1398 41.6641 43.1076C41.7422 43.0755 41.8132 43.0284 41.873 42.969C41.9327 42.9097 41.9801 42.8392 42.0125 42.7616C42.0448 42.684 42.0615 42.6009 42.0615 42.5169C42.0507 38.8308 42.1613 34.768 42.3934 30.3286C42.5176 27.9186 42.6498 26.0165 42.7902 24.6225C43.0465 22.073 43.1531 20.1549 43.11 18.8681C43.109 18.8115 43.0862 18.7575 43.0462 18.7171C43.0063 18.6767 42.9523 18.653 42.8954 18.651C40.4503 18.5652 37.931 18.5826 35.3375 18.7032C32.5766 18.8279 26.9213 18.1604 22.9743 18.08C22.3914 18.0679 21.9137 18.2569 21.4036 18.0759C21.2471 18.0196 20.9205 17.966 20.424 17.9151C19.3957 17.8132 18.3365 17.7301 17.2461 17.6658C17.1894 17.6625 17.1326 17.6703 17.079 17.6888C17.0254 17.7073 16.9761 17.7361 16.934 17.7735C16.8918 17.8109 16.8576 17.8562 16.8333 17.9067C16.8091 17.9573 16.7953 18.0121 16.7927 18.0679Z" fill="#FFB60E"/>
<path d="M24.3278 36.0541C23.8691 36.0541 23.5065 35.9208 23.2398 35.6541C22.9731 35.3874 22.8398 35.0248 22.8398 34.5661V26.2941C22.9571 26.2728 23.1438 26.2461 23.3998 26.2141C23.6558 26.1714 23.9011 26.1501 24.1358 26.1501C24.3811 26.1501 24.5945 26.1714 24.7758 26.2141C24.9678 26.2461 25.1278 26.3101 25.2558 26.4061C25.3838 26.5021 25.4798 26.6354 25.5438 26.8061C25.6078 26.9768 25.6398 27.2008 25.6398 27.4781V33.7981H29.3038C29.3785 33.9154 29.4478 34.0754 29.5118 34.2781C29.5758 34.4701 29.6078 34.6728 29.6078 34.8861C29.6078 35.3128 29.5171 35.6168 29.3358 35.7981C29.1545 35.9688 28.9145 36.0541 28.6158 36.0541H24.3278Z" fill="white"/>
<path d="M35.3261 25.9848C35.7847 25.9867 36.1468 26.1216 36.4124 26.3893C36.678 26.6571 36.8098 27.0203 36.8079 27.479L36.7735 35.7509C36.6561 35.7718 36.4693 35.7977 36.2132 35.8286C35.957 35.8702 35.7116 35.8905 35.4769 35.8895C35.2316 35.8885 35.0183 35.8663 34.8372 35.8229C34.6453 35.7901 34.4856 35.7254 34.358 35.6289C34.2304 35.5323 34.1349 35.3986 34.0716 35.2277C34.0083 35.0567 33.9773 34.8326 33.9784 34.5553L34.0047 28.2353L30.3407 28.2201C30.2666 28.1025 30.1979 27.9422 30.1347 27.7392C30.0715 27.547 30.0404 27.3442 30.0413 27.1309C30.043 26.7042 30.135 26.4006 30.3171 26.22C30.4991 26.0501 30.7394 25.9657 31.0381 25.967L35.3261 25.9848Z" fill="white"/>
<path d="M78.2821 10.8H82.4941V25.568H91.6201V29H78.2821V10.8ZM100.762 29.208C99.2886 29.208 97.9626 28.9047 96.784 28.298C95.6226 27.674 94.7126 26.816 94.054 25.724C93.3953 24.632 93.066 23.3927 93.066 22.006C93.066 20.6193 93.3953 19.38 94.054 18.288C94.7126 17.196 95.6226 16.3467 96.784 15.74C97.9626 15.116 99.2886 14.804 100.762 14.804C102.235 14.804 103.553 15.116 104.714 15.74C105.875 16.3467 106.785 17.196 107.444 18.288C108.103 19.38 108.432 20.6193 108.432 22.006C108.432 23.3927 108.103 24.632 107.444 25.724C106.785 26.816 105.875 27.674 104.714 28.298C103.553 28.9047 102.235 29.208 100.762 29.208ZM100.762 25.88C101.802 25.88 102.651 25.5333 103.31 24.84C103.986 24.1293 104.324 23.1847 104.324 22.006C104.324 20.8273 103.986 19.8913 103.31 19.198C102.651 18.4873 101.802 18.132 100.762 18.132C99.722 18.132 98.864 18.4873 98.188 19.198C97.512 19.8913 97.174 20.8273 97.174 22.006C97.174 23.1847 97.512 24.1293 98.188 24.84C98.864 25.5333 99.722 25.88 100.762 25.88ZM126.093 15.012V26.66C126.093 29.2253 125.426 31.132 124.091 32.38C122.756 33.628 120.806 34.252 118.241 34.252C116.889 34.252 115.606 34.0873 114.393 33.758C113.18 33.4287 112.174 32.952 111.377 32.328L112.989 29.416C113.578 29.9013 114.324 30.2827 115.225 30.56C116.126 30.8547 117.028 31.002 117.929 31.002C119.333 31.002 120.364 30.6813 121.023 30.04C121.699 29.416 122.037 28.4627 122.037 27.18V26.582C120.98 27.7433 119.506 28.324 117.617 28.324C116.334 28.324 115.156 28.0467 114.081 27.492C113.024 26.92 112.183 26.1227 111.559 25.1C110.935 24.0773 110.623 22.8987 110.623 21.564C110.623 20.2293 110.935 19.0507 111.559 18.028C112.183 17.0053 113.024 16.2167 114.081 15.662C115.156 15.09 116.334 14.804 117.617 14.804C119.645 14.804 121.188 15.4713 122.245 16.806V15.012H126.093ZM118.423 24.996C119.498 24.996 120.373 24.684 121.049 24.06C121.742 23.4187 122.089 22.5867 122.089 21.564C122.089 20.5413 121.742 19.718 121.049 19.094C120.373 18.4527 119.498 18.132 118.423 18.132C117.348 18.132 116.464 18.4527 115.771 19.094C115.078 19.718 114.731 20.5413 114.731 21.564C114.731 22.5867 115.078 23.4187 115.771 24.06C116.464 24.684 117.348 24.996 118.423 24.996ZM130.388 15.012H134.444V29H130.388V15.012ZM132.416 13.062C131.671 13.062 131.064 12.8453 130.596 12.412C130.128 11.9787 129.894 11.4413 129.894 10.8C129.894 10.1587 130.128 9.62133 130.596 9.188C131.064 8.75467 131.671 8.538 132.416 8.538C133.162 8.538 133.768 8.746 134.236 9.162C134.704 9.578 134.938 10.098 134.938 10.722C134.938 11.398 134.704 11.9613 134.236 12.412C133.768 12.8453 133.162 13.062 132.416 13.062ZM145.488 29.208C143.998 29.208 142.654 28.9047 141.458 28.298C140.28 27.674 139.352 26.816 138.676 25.724C138.018 24.632 137.688 23.3927 137.688 22.006C137.688 20.6193 138.018 19.38 138.676 18.288C139.352 17.196 140.28 16.3467 141.458 15.74C142.654 15.116 143.998 14.804 145.488 14.804C146.962 14.804 148.244 15.116 149.336 15.74C150.446 16.3467 151.252 17.222 151.754 18.366L148.608 20.056C147.88 18.7733 146.832 18.132 145.462 18.132C144.405 18.132 143.53 18.4787 142.836 19.172C142.143 19.8653 141.796 20.81 141.796 22.006C141.796 23.202 142.143 24.1467 142.836 24.84C143.53 25.5333 144.405 25.88 145.462 25.88C146.849 25.88 147.898 25.2387 148.608 23.956L151.754 25.672C151.252 26.7813 150.446 27.648 149.336 28.272C148.244 28.896 146.962 29.208 145.488 29.208ZM190.098 10.8H194.31V25.568H203.436V29H190.098V10.8ZM206.024 15.012H210.08V29H206.024V15.012ZM208.052 13.062C207.306 13.062 206.7 12.8453 206.232 12.412C205.764 11.9787 205.53 11.4413 205.53 10.8C205.53 10.1587 205.764 9.62133 206.232 9.188C206.7 8.75467 207.306 8.538 208.052 8.538C208.797 8.538 209.404 8.746 209.872 9.162C210.34 9.578 210.574 10.098 210.574 10.722C210.574 11.398 210.34 11.9613 209.872 12.412C209.404 12.8453 208.797 13.062 208.052 13.062ZM222.866 14.804C224.599 14.804 225.995 15.324 227.052 16.364C228.127 17.404 228.664 18.9467 228.664 20.992V29H224.608V21.616C224.608 20.5067 224.365 19.6833 223.88 19.146C223.395 18.5913 222.693 18.314 221.774 18.314C220.751 18.314 219.937 18.6347 219.33 19.276C218.723 19.9 218.42 20.836 218.42 22.084V29H214.364V15.012H218.238V16.65C218.775 16.0607 219.443 15.61 220.24 15.298C221.037 14.9687 221.913 14.804 222.866 14.804ZM240.059 25.958C240.787 25.958 241.428 25.854 241.983 25.646C242.555 25.4207 243.084 25.074 243.569 24.606L245.727 26.946C244.41 28.454 242.486 29.208 239.955 29.208C238.378 29.208 236.982 28.9047 235.769 28.298C234.556 27.674 233.62 26.816 232.961 25.724C232.302 24.632 231.973 23.3927 231.973 22.006C231.973 20.6367 232.294 19.406 232.935 18.314C233.594 17.2047 234.486 16.3467 235.613 15.74C236.757 15.116 238.04 14.804 239.461 14.804C240.796 14.804 242.009 15.09 243.101 15.662C244.193 16.2167 245.06 17.0313 245.701 18.106C246.36 19.1633 246.689 20.42 246.689 21.876L236.341 23.878C236.636 24.5713 237.095 25.0913 237.719 25.438C238.36 25.7847 239.14 25.958 240.059 25.958ZM239.461 17.872C238.438 17.872 237.606 18.2013 236.965 18.86C236.324 19.5187 235.986 20.4287 235.951 21.59L242.763 20.264C242.572 19.536 242.182 18.9553 241.593 18.522C241.004 18.0887 240.293 17.872 239.461 17.872ZM254.641 29.208C253.48 29.208 252.345 29.0693 251.235 28.792C250.126 28.4973 249.242 28.1333 248.583 27.7L249.935 24.788C250.559 25.1867 251.313 25.516 252.197 25.776C253.081 26.0187 253.948 26.14 254.797 26.14C256.513 26.14 257.371 25.7153 257.371 24.866C257.371 24.4673 257.137 24.1813 256.669 24.008C256.201 23.8347 255.482 23.6873 254.511 23.566C253.367 23.3927 252.423 23.1933 251.677 22.968C250.932 22.7427 250.282 22.344 249.727 21.772C249.19 21.2 248.921 20.3853 248.921 19.328C248.921 18.444 249.173 17.664 249.675 16.988C250.195 16.2947 250.941 15.7573 251.911 15.376C252.899 14.9947 254.061 14.804 255.395 14.804C256.383 14.804 257.363 14.9167 258.333 15.142C259.321 15.35 260.136 15.6447 260.777 16.026L259.425 18.912C258.195 18.2187 256.851 17.872 255.395 17.872C254.529 17.872 253.879 17.9933 253.445 18.236C253.012 18.4787 252.795 18.7907 252.795 19.172C252.795 19.6053 253.029 19.9087 253.497 20.082C253.965 20.2553 254.711 20.42 255.733 20.576C256.877 20.7667 257.813 20.9747 258.541 21.2C259.269 21.408 259.902 21.798 260.439 22.37C260.977 22.942 261.245 23.7393 261.245 24.762C261.245 25.6287 260.985 26.4 260.465 27.076C259.945 27.752 259.183 28.2807 258.177 28.662C257.189 29.026 256.011 29.208 254.641 29.208Z" fill="#EBE7D9"/>
<path d="M176.767 29.312L174.583 27.284C172.85 28.636 170.822 29.312 168.499 29.312C167.182 29.312 165.994 29.104 164.937 28.688C163.88 28.2547 163.048 27.6567 162.441 26.894C161.852 26.1313 161.557 25.2733 161.557 24.32C161.557 23.1933 161.869 22.2053 162.493 21.356C163.134 20.4893 164.157 19.666 165.561 18.886C164.902 18.21 164.426 17.5687 164.131 16.962C163.836 16.338 163.689 15.6967 163.689 15.038C163.689 14.154 163.923 13.374 164.391 12.698C164.859 12.022 165.518 11.502 166.367 11.138C167.234 10.7567 168.23 10.566 169.357 10.566C170.934 10.566 172.2 10.9473 173.153 11.71C174.106 12.4553 174.583 13.4693 174.583 14.752C174.583 15.688 174.297 16.52 173.725 17.248C173.17 17.976 172.269 18.678 171.021 19.354L174.349 22.448C174.748 21.616 175.051 20.6713 175.259 19.614L178.509 20.628C178.162 22.24 177.608 23.618 176.845 24.762L178.977 26.738L176.767 29.312ZM169.357 13.322C168.75 13.322 168.265 13.478 167.901 13.79C167.554 14.102 167.381 14.5007 167.381 14.986C167.381 15.35 167.476 15.6967 167.667 16.026C167.858 16.338 168.23 16.7627 168.785 17.3C169.669 16.832 170.284 16.416 170.631 16.052C170.978 15.6707 171.151 15.2633 171.151 14.83C171.151 14.3793 170.995 14.0153 170.683 13.738C170.371 13.4607 169.929 13.322 169.357 13.322ZM168.785 26.14C170.05 26.14 171.186 25.7847 172.191 25.074L167.797 20.966C166.982 21.434 166.402 21.8933 166.055 22.344C165.708 22.7947 165.535 23.306 165.535 23.878C165.535 24.554 165.83 25.1 166.419 25.516C167.008 25.932 167.797 26.14 168.785 26.14Z" fill="#EBAA00"/>
<g opacity="0.6">
<path d="M79.684 49.072C79.06 49.072 78.46 48.972 77.884 48.772C77.316 48.564 76.876 48.3 76.564 47.98L76.912 47.296C77.208 47.584 77.604 47.828 78.1 48.028C78.604 48.22 79.132 48.316 79.684 48.316C80.212 48.316 80.64 48.252 80.968 48.124C81.304 47.988 81.548 47.808 81.7 47.584C81.86 47.36 81.94 47.112 81.94 46.84C81.94 46.512 81.844 46.248 81.652 46.048C81.468 45.848 81.224 45.692 80.92 45.58C80.616 45.46 80.28 45.356 79.912 45.268C79.544 45.18 79.176 45.088 78.808 44.992C78.44 44.888 78.1 44.752 77.788 44.584C77.484 44.416 77.236 44.196 77.044 43.924C76.86 43.644 76.768 43.28 76.768 42.832C76.768 42.416 76.876 42.036 77.092 41.692C77.316 41.34 77.656 41.06 78.112 40.852C78.568 40.636 79.152 40.528 79.864 40.528C80.336 40.528 80.804 40.596 81.268 40.732C81.732 40.86 82.132 41.04 82.468 41.272L82.168 41.98C81.808 41.74 81.424 41.564 81.016 41.452C80.616 41.34 80.228 41.284 79.852 41.284C79.348 41.284 78.932 41.352 78.604 41.488C78.276 41.624 78.032 41.808 77.872 42.04C77.72 42.264 77.644 42.52 77.644 42.808C77.644 43.136 77.736 43.4 77.92 43.6C78.112 43.8 78.36 43.956 78.664 44.068C78.976 44.18 79.316 44.28 79.684 44.368C80.052 44.456 80.416 44.552 80.776 44.656C81.144 44.76 81.48 44.896 81.784 45.064C82.096 45.224 82.344 45.44 82.528 45.712C82.72 45.984 82.816 46.34 82.816 46.78C82.816 47.188 82.704 47.568 82.48 47.92C82.256 48.264 81.912 48.544 81.448 48.76C80.992 48.968 80.404 49.072 79.684 49.072ZM85.9508 49V40.6H86.6828L90.5228 47.152H90.1388L93.9428 40.6H94.6748V49H93.8228V41.932H94.0268L90.5228 47.932H90.1028L86.5748 41.932H86.8028V49H85.9508ZM97.2677 49L101.108 40.6H101.984L105.824 49H104.888L101.36 41.116H101.72L98.1917 49H97.2677ZM98.7797 46.756L99.0437 46.036H103.928L104.192 46.756H98.7797ZM108.413 49V40.6H111.557C112.269 40.6 112.881 40.716 113.393 40.948C113.905 41.172 114.297 41.5 114.569 41.932C114.849 42.356 114.989 42.872 114.989 43.48C114.989 44.072 114.849 44.584 114.569 45.016C114.297 45.44 113.905 45.768 113.393 46C112.881 46.224 112.269 46.336 111.557 46.336H108.905L109.301 45.928V49H108.413ZM114.149 49L111.989 45.952H112.949L115.121 49H114.149ZM109.301 46L108.905 45.58H111.533C112.373 45.58 113.009 45.396 113.441 45.028C113.881 44.66 114.101 44.144 114.101 43.48C114.101 42.808 113.881 42.288 113.441 41.92C113.009 41.552 112.373 41.368 111.533 41.368H108.905L109.301 40.948V46ZM119.8 49V41.368H116.848V40.6H123.64V41.368H120.688V49H119.8ZM129.255 49L133.095 40.6H133.971L137.811 49H136.875L133.347 41.116H133.707L130.179 49H129.255ZM130.767 46.756L131.031 46.036H135.915L136.179 46.756H130.767ZM143.609 49.072C142.537 49.072 141.693 48.764 141.077 48.148C140.461 47.532 140.153 46.62 140.153 45.412V40.6H141.041V45.376C141.041 46.368 141.265 47.1 141.713 47.572C142.161 48.044 142.793 48.28 143.609 48.28C144.433 48.28 145.069 48.044 145.517 47.572C145.965 47.1 146.189 46.368 146.189 45.376V40.6H147.053V45.412C147.053 46.62 146.745 47.532 146.129 48.148C145.521 48.764 144.681 49.072 143.609 49.072ZM152.397 49V41.368H149.445V40.6H156.237V41.368H153.285V49H152.397ZM162.41 49.072C161.778 49.072 161.19 48.968 160.646 48.76C160.11 48.544 159.642 48.244 159.242 47.86C158.85 47.468 158.542 47.016 158.318 46.504C158.102 45.984 157.994 45.416 157.994 44.8C157.994 44.184 158.102 43.62 158.318 43.108C158.542 42.588 158.85 42.136 159.242 41.752C159.642 41.36 160.11 41.06 160.646 40.852C161.182 40.636 161.77 40.528 162.41 40.528C163.042 40.528 163.626 40.636 164.162 40.852C164.698 41.06 165.162 41.356 165.554 41.74C165.954 42.124 166.262 42.576 166.478 43.096C166.702 43.616 166.814 44.184 166.814 44.8C166.814 45.416 166.702 45.984 166.478 46.504C166.262 47.024 165.954 47.476 165.554 47.86C165.162 48.244 164.698 48.544 164.162 48.76C163.626 48.968 163.042 49.072 162.41 49.072ZM162.41 48.28C162.914 48.28 163.378 48.196 163.802 48.028C164.234 47.852 164.606 47.608 164.918 47.296C165.238 46.976 165.486 46.608 165.662 46.192C165.838 45.768 165.926 45.304 165.926 44.8C165.926 44.296 165.838 43.836 165.662 43.42C165.486 42.996 165.238 42.628 164.918 42.316C164.606 41.996 164.234 41.752 163.802 41.584C163.378 41.408 162.914 41.32 162.41 41.32C161.906 41.32 161.438 41.408 161.006 41.584C160.574 41.752 160.198 41.996 159.878 42.316C159.566 42.628 159.318 42.996 159.134 43.42C158.958 43.836 158.87 44.296 158.87 44.8C158.87 45.296 158.958 45.756 159.134 46.18C159.318 46.604 159.566 46.976 159.878 47.296C160.198 47.608 160.574 47.852 161.006 48.028C161.438 48.196 161.906 48.28 162.41 48.28ZM170.005 49V40.6H170.737L174.577 47.152H174.193L177.997 40.6H178.729V49H177.877V41.932H178.081L174.577 47.932H174.157L170.629 41.932H170.857V49H170.005ZM181.322 49L185.162 40.6H186.038L189.878 49H188.942L185.414 41.116H185.774L182.246 49H181.322ZM182.834 46.756L183.098 46.036H187.982L188.246 46.756H182.834ZM193.677 49V41.368H190.725V40.6H197.517V41.368H194.565V49H193.677ZM200.136 49V40.6H201.024V49H200.136ZM208.629 49.072C207.997 49.072 207.409 48.968 206.865 48.76C206.329 48.544 205.861 48.244 205.461 47.86C205.069 47.468 204.761 47.016 204.537 46.504C204.321 45.984 204.213 45.416 204.213 44.8C204.213 44.184 204.321 43.62 204.537 43.108C204.761 42.588 205.069 42.136 205.461 41.752C205.861 41.36 206.329 41.06 206.865 40.852C207.401 40.636 207.989 40.528 208.629 40.528C209.261 40.528 209.845 40.636 210.381 40.852C210.917 41.06 211.381 41.356 211.773 41.74C212.173 42.124 212.481 42.576 212.697 43.096C212.921 43.616 213.033 44.184 213.033 44.8C213.033 45.416 212.921 45.984 212.697 46.504C212.481 47.024 212.173 47.476 211.773 47.86C211.381 48.244 210.917 48.544 210.381 48.76C209.845 48.968 209.261 49.072 208.629 49.072ZM208.629 48.28C209.133 48.28 209.597 48.196 210.021 48.028C210.453 47.852 210.825 47.608 211.137 47.296C211.457 46.976 211.705 46.608 211.881 46.192C212.057 45.768 212.145 45.304 212.145 44.8C212.145 44.296 212.057 43.836 211.881 43.42C211.705 42.996 211.457 42.628 211.137 42.316C210.825 41.996 210.453 41.752 210.021 41.584C209.597 41.408 209.133 41.32 208.629 41.32C208.125 41.32 207.657 41.408 207.225 41.584C206.793 41.752 206.417 41.996 206.097 42.316C205.785 42.628 205.537 42.996 205.353 43.42C205.177 43.836 205.089 44.296 205.089 44.8C205.089 45.296 205.177 45.756 205.353 46.18C205.537 46.604 205.785 46.976 206.097 47.296C206.417 47.608 206.793 47.852 207.225 48.028C207.657 48.196 208.125 48.28 208.629 48.28ZM216.223 49V40.6H216.955L222.751 47.896H222.367V40.6H223.243V49H222.511L216.727 41.704H217.111V49H216.223Z" fill="#EBE7D9"/>
</g>
</svg>
