<svg width="223" height="48" viewBox="0 0 223 48" fill="none" xmlns="http://www.w3.org/2000/svg">
<path d="M0.706672 47.1614C0.356909 46.0826 0.188505 45.3524 0.201459 44.9706C0.308331 41.7311 0.00714644 38.5881 0.000669352 35.1653C-0.0155234 27.9142 0.26623 22.1237 0.395772 14.7889C0.486451 9.49701 0.606277 5.45327 0.810305 2.01432C0.894507 0.611717 1.70738 -0.108886 3.12586 0.0133597C6.26077 0.283586 8.94661 0.435857 11.1834 0.470171C14.925 0.525932 17.6237 0.641744 19.2797 0.817605C19.9166 0.88409 22.7784 1.02349 27.8651 1.23581C31.0389 1.36663 34.6552 1.62936 38.7142 2.02397C39.2691 2.07759 40.9866 2.11297 43.8667 2.13013C46.4252 2.14622 48.025 2.75744 47.8631 5.47257C47.7076 8.0365 48.0542 10.906 47.9376 13.322C47.7109 17.9866 48.0574 22.9762 47.8728 27.7566C47.808 29.4273 47.7357 33.1911 47.6558 39.0482C47.6407 40.0304 47.6699 40.9237 47.7433 41.7279C47.9182 43.6999 48.1772 44.9996 47.8242 46.6982C47.4907 48.3163 46.396 48.001 44.8286 47.9238C42.9567 47.8273 40.8678 47.689 39.1579 47.6665C28.2354 47.5271 20.6302 47.437 16.3424 47.3962C12.1193 47.3544 7.03802 47.57 2.51702 47.5925C1.79158 47.5946 1.26262 47.5292 0.930131 47.3962C0.877548 47.3762 0.830164 47.3447 0.791485 47.3041C0.752805 47.2634 0.72382 47.2147 0.706672 47.1614ZM41.752 6.07415C32.9194 5.40073 24.4646 4.80344 16.3877 4.28229C12.4302 4.02815 8.09379 3.94772 4.30145 4.05388C4.22011 4.05557 4.14268 4.08919 4.08577 4.14753C4.02885 4.20586 3.997 4.28428 3.99703 4.36593C3.99919 11.8894 4.04561 17.2864 4.13629 20.557C4.18379 22.2791 4.17731 23.7611 4.11686 25.0028C3.99811 27.4692 3.94953 28.9533 3.97112 29.4551C4.06828 31.7199 3.74442 35.1588 3.80596 37.607C3.86209 39.7216 3.89448 41.4909 3.90311 42.915C3.90354 42.9615 3.91317 43.0074 3.93147 43.0502C3.94976 43.0929 3.97636 43.1317 4.00974 43.1643C4.04312 43.1968 4.08263 43.2225 4.12602 43.2399C4.1694 43.2573 4.21581 43.2661 4.26259 43.2656C6.00925 43.2506 7.69653 43.1756 9.32443 43.0404C10.6026 42.9354 12.5727 42.9375 15.2348 43.0469C19.6154 43.227 24.5542 43.5037 30.0511 43.8769C30.919 43.9348 32.7132 43.9508 34.0442 43.8865C37.1403 43.7364 40.3076 43.8114 43.5461 44.1117C43.6025 44.117 43.6593 44.1112 43.7135 44.0947C43.7676 44.0782 43.8179 44.0512 43.8615 44.0154C43.9051 43.9795 43.9412 43.9355 43.9676 43.8858C43.9941 43.8361 44.0104 43.7817 44.0157 43.7257C44.033 43.5262 44.0405 43.3804 44.0384 43.2882C43.7599 36.095 43.5105 30.0825 43.6854 22.7606C43.8236 17.043 43.9002 13.9761 43.9153 13.5601C43.9704 12.032 43.6789 9.98599 43.7113 8.95334C43.7437 7.89817 43.8117 7.40598 44.0189 6.38298C44.0274 6.33955 44.0258 6.29476 44.0142 6.25206C44.0025 6.20935 43.9812 6.16987 43.9518 6.13663C43.9224 6.10339 43.8857 6.07729 43.8446 6.06032C43.8035 6.04336 43.759 6.03598 43.7145 6.03876C42.866 6.09881 42.2118 6.11061 41.752 6.07415Z" fill="#FFB60E"/>
<path d="M10.7367 38.1828C10.5337 38.0349 10.4226 37.8204 10.4031 37.5394C10.2865 35.9856 10.2153 33.9783 10.2477 32.759C10.4139 26.7476 10.4031 20.4991 10.2153 14.0137C10.1861 12.981 10.3286 12.0706 11.3391 11.5784C11.9846 11.2653 12.6895 11.1474 13.4538 11.2246C15.7985 11.4648 18.0666 11.5645 20.258 11.5237C26.1003 11.4165 29.7437 11.4144 31.1881 11.5173C32.097 11.5817 33.9635 11.7489 36.7875 12.0192C36.974 12.0364 37.1518 12.1056 37.3007 12.2188C37.4496 12.332 37.5636 12.4847 37.6295 12.6593C37.9793 13.5955 38.2416 14.5348 38.2222 15.5964C38.206 16.4811 38.151 17.5202 38.2999 18.6268C38.5936 20.823 38.6616 23.1156 38.504 25.5047C38.2989 28.6209 37.961 32.1607 37.4903 36.124C37.3996 36.8853 36.998 37.3689 36.2856 37.5748C35.0808 37.9223 33.3709 38.1056 31.8455 38.1153C21.6916 38.1796 14.9954 38.2633 11.7568 38.3662C11.2667 38.3834 10.9267 38.3222 10.7367 38.1828ZM13.4344 14.4544C13.32 16.6505 13.361 18.7019 13.5575 20.6085C14.0001 24.93 13.972 29.4262 13.4733 34.0973C13.4674 34.1511 13.4729 34.2056 13.4896 34.2571C13.5062 34.3087 13.5336 34.3562 13.57 34.3965C13.6063 34.4369 13.6508 34.4692 13.7005 34.4913C13.7503 34.5135 13.8041 34.525 13.8586 34.5251H33.1345C33.2021 34.5251 33.269 34.5119 33.3315 34.4862C33.394 34.4605 33.4507 34.4228 33.4986 34.3753C33.5464 34.3278 33.5843 34.2714 33.6102 34.2094C33.6361 34.1473 33.6494 34.0808 33.6494 34.0136C33.6407 31.0647 33.7293 27.8145 33.9149 24.263C34.0143 22.3349 34.1201 20.8133 34.2323 19.6981C34.4374 17.6585 34.5227 16.124 34.4882 15.0946C34.4874 15.0493 34.4691 15.0061 34.4372 14.9738C34.4053 14.9414 34.3621 14.9225 34.3165 14.9209C32.3604 14.8522 30.345 14.8662 28.2702 14.9627C26.0615 15.0624 21.5372 14.5284 18.3797 14.4641C17.9133 14.4544 17.5312 14.6056 17.1231 14.4608C16.9979 14.4158 16.7366 14.3729 16.3394 14.3322C15.5168 14.2507 14.6694 14.1842 13.7971 14.1327C13.7517 14.1301 13.7063 14.1364 13.6634 14.1512C13.6206 14.166 13.5811 14.189 13.5474 14.2189C13.5136 14.2488 13.4863 14.2851 13.4669 14.3255C13.4475 14.3659 13.4364 14.4097 13.4344 14.4544Z" fill="#FFB60E"/>
<path d="M19.896 28.036C19.552 28.036 19.28 27.936 19.08 27.736C18.88 27.536 18.78 27.264 18.78 26.92V20.716C18.868 20.7 19.008 20.68 19.2 20.656C19.392 20.624 19.576 20.608 19.752 20.608C19.936 20.608 20.096 20.624 20.232 20.656C20.376 20.68 20.496 20.728 20.592 20.8C20.688 20.872 20.76 20.972 20.808 21.1C20.856 21.228 20.88 21.396 20.88 21.604V26.344H23.628C23.684 26.432 23.736 26.552 23.784 26.704C23.832 26.848 23.856 27 23.856 27.16C23.856 27.48 23.788 27.708 23.652 27.844C23.516 27.972 23.336 28.036 23.112 28.036H19.896Z" fill="white"/>
<path d="M27.5461 20.786C27.8901 20.7875 28.1617 20.8886 28.3609 21.0894C28.56 21.2903 28.6589 21.5627 28.6575 21.9067L28.6317 28.1106C28.5436 28.1262 28.4035 28.1457 28.2114 28.1689C28.0193 28.2001 27.8352 28.2153 27.6592 28.2146C27.4752 28.2138 27.3153 28.1971 27.1795 28.1646C27.0356 28.14 26.9158 28.0915 26.8201 28.0191C26.7244 27.9467 26.6528 27.8464 26.6053 27.7182C26.5578 27.59 26.5345 27.4219 26.5354 27.2139L26.5551 22.4739L23.8071 22.4625C23.7515 22.3743 23.7 22.2541 23.6526 22.1019C23.6052 21.9577 23.5819 21.8056 23.5825 21.6456C23.5839 21.3256 23.6528 21.0979 23.7894 20.9624C23.9259 20.835 24.1062 20.7717 24.3302 20.7727L27.5461 20.786Z" fill="white"/>
<path d="M65.826 8.6H69.39V21.096H77.112V24H65.826V8.6ZM84.9274 24.176C83.6807 24.176 82.5587 23.9193 81.5614 23.406C80.5787 22.878 79.8087 22.152 79.2514 21.228C78.6941 20.304 78.4154 19.2553 78.4154 18.082C78.4154 16.9087 78.6941 15.86 79.2514 14.936C79.8087 14.012 80.5787 13.2933 81.5614 12.78C82.5587 12.252 83.6807 11.988 84.9274 11.988C86.1741 11.988 87.2887 12.252 88.2714 12.78C89.2541 13.2933 90.0241 14.012 90.5814 14.936C91.1387 15.86 91.4174 16.9087 91.4174 18.082C91.4174 19.2553 91.1387 20.304 90.5814 21.228C90.0241 22.152 89.2541 22.878 88.2714 23.406C87.2887 23.9193 86.1741 24.176 84.9274 24.176ZM84.9274 21.36C85.8074 21.36 86.5261 21.0667 87.0834 20.48C87.6554 19.8787 87.9414 19.0793 87.9414 18.082C87.9414 17.0847 87.6554 16.2927 87.0834 15.706C86.5261 15.1047 85.8074 14.804 84.9274 14.804C84.0474 14.804 83.3214 15.1047 82.7494 15.706C82.1774 16.2927 81.8914 17.0847 81.8914 18.082C81.8914 19.0793 82.1774 19.8787 82.7494 20.48C83.3214 21.0667 84.0474 21.36 84.9274 21.36ZM106.441 12.164V22.02C106.441 24.1907 105.877 25.804 104.747 26.86C103.618 27.916 101.968 28.444 99.7974 28.444C98.6534 28.444 97.5681 28.3047 96.5414 28.026C95.5148 27.7473 94.6641 27.344 93.9894 26.816L95.3534 24.352C95.8521 24.7627 96.4828 25.0853 97.2454 25.32C98.0081 25.5693 98.7708 25.694 99.5334 25.694C100.721 25.694 101.594 25.4227 102.151 24.88C102.723 24.352 103.009 23.5453 103.009 22.46V21.954C102.115 22.9367 100.868 23.428 99.2694 23.428C98.1841 23.428 97.1868 23.1933 96.2774 22.724C95.3828 22.24 94.6714 21.5653 94.1434 20.7C93.6154 19.8347 93.3514 18.8373 93.3514 17.708C93.3514 16.5787 93.6154 15.5813 94.1434 14.716C94.6714 13.8507 95.3828 13.1833 96.2774 12.714C97.1868 12.23 98.1841 11.988 99.2694 11.988C100.985 11.988 102.291 12.5527 103.185 13.682V12.164H106.441ZM99.9514 20.612C100.861 20.612 101.601 20.348 102.173 19.82C102.76 19.2773 103.053 18.5733 103.053 17.708C103.053 16.8427 102.76 16.146 102.173 15.618C101.601 15.0753 100.861 14.804 99.9514 14.804C99.0421 14.804 98.2941 15.0753 97.7074 15.618C97.1208 16.146 96.8274 16.8427 96.8274 17.708C96.8274 18.5733 97.1208 19.2773 97.7074 19.82C98.2941 20.348 99.0421 20.612 99.9514 20.612ZM110.156 12.164H113.588V24H110.156V12.164ZM111.872 10.514C111.241 10.514 110.728 10.3307 110.332 9.964C109.936 9.59733 109.738 9.14267 109.738 8.6C109.738 8.05733 109.936 7.60267 110.332 7.236C110.728 6.86933 111.241 6.686 111.872 6.686C112.502 6.686 113.016 6.862 113.412 7.214C113.808 7.566 114.006 8.006 114.006 8.534C114.006 9.106 113.808 9.58267 113.412 9.964C113.016 10.3307 112.502 10.514 111.872 10.514ZM123.013 24.176C121.752 24.176 120.615 23.9193 119.603 23.406C118.606 22.878 117.821 22.152 117.249 21.228C116.692 20.304 116.413 19.2553 116.413 18.082C116.413 16.9087 116.692 15.86 117.249 14.936C117.821 14.012 118.606 13.2933 119.603 12.78C120.615 12.252 121.752 11.988 123.013 11.988C124.26 11.988 125.345 12.252 126.269 12.78C127.208 13.2933 127.89 14.034 128.315 15.002L125.653 16.432C125.037 15.3467 124.15 14.804 122.991 14.804C122.096 14.804 121.356 15.0973 120.769 15.684C120.182 16.2707 119.889 17.07 119.889 18.082C119.889 19.094 120.182 19.8933 120.769 20.48C121.356 21.0667 122.096 21.36 122.991 21.36C124.164 21.36 125.052 20.8173 125.653 19.732L128.315 21.184C127.89 22.1227 127.208 22.856 126.269 23.384C125.345 23.912 124.26 24.176 123.013 24.176ZM161.08 8.6H164.644V21.096H172.366V24H161.08V8.6ZM174.635 12.164H178.067V24H174.635V12.164ZM176.351 10.514C175.72 10.514 175.207 10.3307 174.811 9.964C174.415 9.59733 174.217 9.14267 174.217 8.6C174.217 8.05733 174.415 7.60267 174.811 7.236C175.207 6.86933 175.72 6.686 176.351 6.686C176.982 6.686 177.495 6.862 177.891 7.214C178.287 7.566 178.485 8.006 178.485 8.534C178.485 9.106 178.287 9.58267 177.891 9.964C177.495 10.3307 176.982 10.514 176.351 10.514ZM188.966 11.988C190.433 11.988 191.614 12.428 192.508 13.308C193.418 14.188 193.872 15.4933 193.872 17.224V24H190.44V17.752C190.44 16.8133 190.235 16.1167 189.824 15.662C189.414 15.1927 188.82 14.958 188.042 14.958C187.177 14.958 186.488 15.2293 185.974 15.772C185.461 16.3 185.204 17.092 185.204 18.148V24H181.772V12.164H185.05V13.55C185.505 13.0513 186.07 12.67 186.744 12.406C187.419 12.1273 188.16 11.988 188.966 11.988ZM203.594 21.426C204.21 21.426 204.753 21.338 205.222 21.162C205.706 20.9713 206.153 20.678 206.564 20.282L208.39 22.262C207.275 23.538 205.647 24.176 203.506 24.176C202.171 24.176 200.991 23.9193 199.964 23.406C198.937 22.878 198.145 22.152 197.588 21.228C197.031 20.304 196.752 19.2553 196.752 18.082C196.752 16.9233 197.023 15.882 197.566 14.958C198.123 14.0193 198.879 13.2933 199.832 12.78C200.8 12.252 201.885 11.988 203.088 11.988C204.217 11.988 205.244 12.23 206.168 12.714C207.092 13.1833 207.825 13.8727 208.368 14.782C208.925 15.6767 209.204 16.74 209.204 17.972L200.448 19.666C200.697 20.2527 201.086 20.6927 201.614 20.986C202.157 21.2793 202.817 21.426 203.594 21.426ZM203.088 14.584C202.223 14.584 201.519 14.8627 200.976 15.42C200.433 15.9773 200.147 16.7473 200.118 17.73L205.882 16.608C205.721 15.992 205.391 15.5007 204.892 15.134C204.393 14.7673 203.792 14.584 203.088 14.584ZM216.013 24.176C215.03 24.176 214.07 24.0587 213.131 23.824C212.192 23.5747 211.444 23.2667 210.887 22.9L212.031 20.436C212.559 20.7733 213.197 21.052 213.945 21.272C214.693 21.4773 215.426 21.58 216.145 21.58C217.597 21.58 218.323 21.2207 218.323 20.502C218.323 20.1647 218.125 19.9227 217.729 19.776C217.333 19.6293 216.724 19.5047 215.903 19.402C214.935 19.2553 214.136 19.0867 213.505 18.896C212.874 18.7053 212.324 18.368 211.855 17.884C211.4 17.4 211.173 16.7107 211.173 15.816C211.173 15.068 211.386 14.408 211.811 13.836C212.251 13.2493 212.882 12.7947 213.703 12.472C214.539 12.1493 215.522 11.988 216.651 11.988C217.487 11.988 218.316 12.0833 219.137 12.274C219.973 12.45 220.662 12.6993 221.205 13.022L220.061 15.464C219.02 14.8773 217.883 14.584 216.651 14.584C215.918 14.584 215.368 14.6867 215.001 14.892C214.634 15.0973 214.451 15.3613 214.451 15.684C214.451 16.0507 214.649 16.3073 215.045 16.454C215.441 16.6007 216.072 16.74 216.937 16.872C217.905 17.0333 218.697 17.2093 219.313 17.4C219.929 17.576 220.464 17.906 220.919 18.39C221.374 18.874 221.601 19.5487 221.601 20.414C221.601 21.1473 221.381 21.8 220.941 22.372C220.501 22.944 219.856 23.3913 219.005 23.714C218.169 24.022 217.172 24.176 216.013 24.176Z" fill="white"/>
<path d="M149.639 24.264L147.791 22.548C146.325 23.692 144.609 24.264 142.643 24.264C141.529 24.264 140.524 24.088 139.629 23.736C138.735 23.3693 138.031 22.8633 137.517 22.218C137.019 21.5727 136.769 20.8467 136.769 20.04C136.769 19.0867 137.033 18.2507 137.561 17.532C138.104 16.7987 138.969 16.102 140.157 15.442C139.6 14.87 139.197 14.3273 138.947 13.814C138.698 13.286 138.573 12.7433 138.573 12.186C138.573 11.438 138.771 10.778 139.167 10.206C139.563 9.634 140.121 9.194 140.839 8.886C141.573 8.56333 142.416 8.402 143.369 8.402C144.704 8.402 145.775 8.72467 146.581 9.37C147.388 10.0007 147.791 10.8587 147.791 11.944C147.791 12.736 147.549 13.44 147.065 14.056C146.596 14.672 145.833 15.266 144.777 15.838L147.593 18.456C147.931 17.752 148.187 16.9527 148.363 16.058L151.113 16.916C150.82 18.28 150.351 19.446 149.705 20.414L151.509 22.086L149.639 24.264ZM143.369 10.734C142.856 10.734 142.445 10.866 142.137 11.13C141.844 11.394 141.697 11.7313 141.697 12.142C141.697 12.45 141.778 12.7433 141.939 13.022C142.101 13.286 142.416 13.6453 142.885 14.1C143.633 13.704 144.154 13.352 144.447 13.044C144.741 12.7213 144.887 12.3767 144.887 12.01C144.887 11.6287 144.755 11.3207 144.491 11.086C144.227 10.8513 143.853 10.734 143.369 10.734ZM142.885 21.58C143.956 21.58 144.917 21.2793 145.767 20.678L142.049 17.202C141.36 17.598 140.869 17.9867 140.575 18.368C140.282 18.7493 140.135 19.182 140.135 19.666C140.135 20.238 140.385 20.7 140.883 21.052C141.382 21.404 142.049 21.58 142.885 21.58Z" fill="#EBAA00"/>
<g opacity="0.6">
<path d="M67.708 42.096C67.068 42.096 66.456 42 65.872 41.808C65.288 41.608 64.828 41.352 64.492 41.04L64.936 40.104C65.256 40.384 65.664 40.616 66.16 40.8C66.656 40.984 67.172 41.076 67.708 41.076C68.196 41.076 68.592 41.02 68.896 40.908C69.2 40.796 69.424 40.644 69.568 40.452C69.712 40.252 69.784 40.028 69.784 39.78C69.784 39.492 69.688 39.26 69.496 39.084C69.312 38.908 69.068 38.768 68.764 38.664C68.468 38.552 68.14 38.456 67.78 38.376C67.42 38.296 67.056 38.204 66.688 38.1C66.328 37.988 65.996 37.848 65.692 37.68C65.396 37.512 65.156 37.288 64.972 37.008C64.788 36.72 64.696 36.352 64.696 35.904C64.696 35.472 64.808 35.076 65.032 34.716C65.264 34.348 65.616 34.056 66.088 33.84C66.568 33.616 67.176 33.504 67.912 33.504C68.4 33.504 68.884 33.568 69.364 33.696C69.844 33.824 70.26 34.008 70.612 34.248L70.216 35.208C69.856 34.968 69.476 34.796 69.076 34.692C68.676 34.58 68.288 34.524 67.912 34.524C67.44 34.524 67.052 34.584 66.748 34.704C66.444 34.824 66.22 34.984 66.076 35.184C65.94 35.384 65.872 35.608 65.872 35.856C65.872 36.152 65.964 36.388 66.148 36.564C66.34 36.74 66.584 36.88 66.88 36.984C67.184 37.088 67.516 37.184 67.876 37.272C68.236 37.352 68.596 37.444 68.956 37.548C69.324 37.652 69.656 37.788 69.952 37.956C70.256 38.124 70.5 38.348 70.684 38.628C70.868 38.908 70.96 39.268 70.96 39.708C70.96 40.132 70.844 40.528 70.612 40.896C70.38 41.256 70.02 41.548 69.532 41.772C69.052 41.988 68.444 42.096 67.708 42.096ZM73.9131 42V33.6H74.8971L78.6651 39.948H78.1371L81.8571 33.6H82.8411L82.8531 42H81.7011L81.6891 35.412H81.9651L78.6531 40.98H78.1011L74.7651 35.412H75.0651V42H73.9131ZM85.3021 42L89.1061 33.6H90.2941L94.1101 42H92.8501L89.4541 34.272H89.9341L86.5381 42H85.3021ZM86.9221 39.9L87.2461 38.94H91.9741L92.3221 39.9H86.9221ZM96.5631 42V33.6H99.8391C100.575 33.6 101.203 33.716 101.723 33.948C102.243 34.18 102.643 34.516 102.923 34.956C103.203 35.396 103.343 35.92 103.343 36.528C103.343 37.136 103.203 37.66 102.923 38.1C102.643 38.532 102.243 38.864 101.723 39.096C101.203 39.328 100.575 39.444 99.8391 39.444H97.2231L97.7631 38.892V42H96.5631ZM102.179 42L100.043 38.952H101.327L103.487 42H102.179ZM97.7631 39.012L97.2231 38.424H99.8031C100.571 38.424 101.151 38.26 101.543 37.932C101.943 37.596 102.143 37.128 102.143 36.528C102.143 35.928 101.943 35.464 101.543 35.136C101.151 34.808 100.571 34.644 99.8031 34.644H97.2231L97.7631 34.044V39.012ZM108.033 42V34.644H105.153V33.6H112.101V34.644H109.221V42H108.033ZM117.758 42L121.562 33.6H122.75L126.566 42H125.306L121.91 34.272H122.39L118.994 42H117.758ZM119.378 39.9L119.702 38.94H124.43L124.778 39.9H119.378ZM132.324 42.096C131.22 42.096 130.352 41.78 129.72 41.148C129.088 40.516 128.772 39.592 128.772 38.376V33.6H129.972V38.328C129.972 39.264 130.176 39.948 130.584 40.38C131 40.812 131.584 41.028 132.336 41.028C133.096 41.028 133.68 40.812 134.088 40.38C134.504 39.948 134.712 39.264 134.712 38.328V33.6H135.876V38.376C135.876 39.592 135.56 40.516 134.928 41.148C134.304 41.78 133.436 42.096 132.324 42.096ZM141.051 42V34.644H138.171V33.6H145.119V34.644H142.239V42H141.051ZM151.301 42.096C150.661 42.096 150.065 41.988 149.513 41.772C148.969 41.556 148.497 41.256 148.097 40.872C147.697 40.48 147.385 40.024 147.161 39.504C146.937 38.984 146.825 38.416 146.825 37.8C146.825 37.184 146.937 36.616 147.161 36.096C147.385 35.576 147.697 35.124 148.097 34.74C148.497 34.348 148.969 34.044 149.513 33.828C150.057 33.612 150.653 33.504 151.301 33.504C151.941 33.504 152.529 33.612 153.065 33.828C153.609 34.036 154.081 34.336 154.481 34.728C154.889 35.112 155.201 35.564 155.417 36.084C155.641 36.604 155.753 37.176 155.753 37.8C155.753 38.424 155.641 38.996 155.417 39.516C155.201 40.036 154.889 40.492 154.481 40.884C154.081 41.268 153.609 41.568 153.065 41.784C152.529 41.992 151.941 42.096 151.301 42.096ZM151.301 41.028C151.765 41.028 152.193 40.948 152.585 40.788C152.985 40.628 153.329 40.404 153.617 40.116C153.913 39.82 154.141 39.476 154.301 39.084C154.469 38.692 154.553 38.264 154.553 37.8C154.553 37.336 154.469 36.908 154.301 36.516C154.141 36.124 153.913 35.784 153.617 35.496C153.329 35.2 152.985 34.972 152.585 34.812C152.193 34.652 151.765 34.572 151.301 34.572C150.829 34.572 150.393 34.652 149.993 34.812C149.601 34.972 149.257 35.2 148.961 35.496C148.665 35.784 148.433 36.124 148.265 36.516C148.105 36.908 148.025 37.336 148.025 37.8C148.025 38.264 148.105 38.692 148.265 39.084C148.433 39.476 148.665 39.82 148.961 40.116C149.257 40.404 149.601 40.628 149.993 40.788C150.393 40.948 150.829 41.028 151.301 41.028ZM158.787 42V33.6H159.771L163.539 39.948H163.011L166.731 33.6H167.715L167.727 42H166.575L166.563 35.412H166.839L163.527 40.98H162.975L159.639 35.412H159.939V42H158.787ZM170.176 42L173.98 33.6H175.168L178.984 42H177.724L174.328 34.272H174.808L171.412 42H170.176ZM171.796 39.9L172.12 38.94H176.848L177.196 39.9H171.796ZM182.683 42V34.644H179.803V33.6H186.751V34.644H183.871V42H182.683ZM189.258 42V33.6H190.458V42H189.258ZM197.965 42.096C197.325 42.096 196.729 41.988 196.177 41.772C195.633 41.556 195.161 41.256 194.761 40.872C194.361 40.48 194.049 40.024 193.825 39.504C193.601 38.984 193.489 38.416 193.489 37.8C193.489 37.184 193.601 36.616 193.825 36.096C194.049 35.576 194.361 35.124 194.761 34.74C195.161 34.348 195.633 34.044 196.177 33.828C196.721 33.612 197.317 33.504 197.965 33.504C198.605 33.504 199.193 33.612 199.729 33.828C200.273 34.036 200.745 34.336 201.145 34.728C201.553 35.112 201.865 35.564 202.081 36.084C202.305 36.604 202.417 37.176 202.417 37.8C202.417 38.424 202.305 38.996 202.081 39.516C201.865 40.036 201.553 40.492 201.145 40.884C200.745 41.268 200.273 41.568 199.729 41.784C199.193 41.992 198.605 42.096 197.965 42.096ZM197.965 41.028C198.429 41.028 198.857 40.948 199.249 40.788C199.649 40.628 199.993 40.404 200.281 40.116C200.577 39.82 200.805 39.476 200.965 39.084C201.133 38.692 201.217 38.264 201.217 37.8C201.217 37.336 201.133 36.908 200.965 36.516C200.805 36.124 200.577 35.784 200.281 35.496C199.993 35.2 199.649 34.972 199.249 34.812C198.857 34.652 198.429 34.572 197.965 34.572C197.493 34.572 197.057 34.652 196.657 34.812C196.265 34.972 195.921 35.2 195.625 35.496C195.329 35.784 195.097 36.124 194.929 36.516C194.769 36.908 194.689 37.336 194.689 37.8C194.689 38.264 194.769 38.692 194.929 39.084C195.097 39.476 195.329 39.82 195.625 40.116C195.921 40.404 196.265 40.628 196.657 40.788C197.057 40.948 197.493 41.028 197.965 41.028ZM205.451 42V33.6H206.435L211.991 40.5H211.475V33.6H212.675V42H211.691L206.135 35.1H206.651V42H205.451ZM218.838 42.096C218.198 42.096 217.586 42 217.002 41.808C216.418 41.608 215.958 41.352 215.622 41.04L216.066 40.104C216.386 40.384 216.794 40.616 217.29 40.8C217.786 40.984 218.302 41.076 218.838 41.076C219.326 41.076 219.722 41.02 220.026 40.908C220.33 40.796 220.554 40.644 220.698 40.452C220.842 40.252 220.914 40.028 220.914 39.78C220.914 39.492 220.818 39.26 220.626 39.084C220.442 38.908 220.198 38.768 219.894 38.664C219.598 38.552 219.27 38.456 218.91 38.376C218.55 38.296 218.186 38.204 217.818 38.1C217.458 37.988 217.126 37.848 216.822 37.68C216.526 37.512 216.286 37.288 216.102 37.008C215.918 36.72 215.826 36.352 215.826 35.904C215.826 35.472 215.938 35.076 216.162 34.716C216.394 34.348 216.746 34.056 217.218 33.84C217.698 33.616 218.306 33.504 219.042 33.504C219.53 33.504 220.014 33.568 220.494 33.696C220.974 33.824 221.39 34.008 221.742 34.248L221.346 35.208C220.986 34.968 220.606 34.796 220.206 34.692C219.806 34.58 219.418 34.524 219.042 34.524C218.57 34.524 218.182 34.584 217.878 34.704C217.574 34.824 217.35 34.984 217.206 35.184C217.07 35.384 217.002 35.608 217.002 35.856C217.002 36.152 217.094 36.388 217.278 36.564C217.47 36.74 217.714 36.88 218.01 36.984C218.314 37.088 218.646 37.184 219.006 37.272C219.366 37.352 219.726 37.444 220.086 37.548C220.454 37.652 220.786 37.788 221.082 37.956C221.386 38.124 221.63 38.348 221.814 38.628C221.998 38.908 222.09 39.268 222.09 39.708C222.09 40.132 221.974 40.528 221.742 40.896C221.51 41.256 221.15 41.548 220.662 41.772C220.182 41.988 219.574 42.096 218.838 42.096Z" fill="white"/>
</g>
</svg>
