<svg width="223" height="48" viewBox="0 0 223 48" fill="none" xmlns="http://www.w3.org/2000/svg">
<path d="M0.706672 47.1614C0.356909 46.0826 0.188505 45.3524 0.201459 44.9706C0.308331 41.7311 0.00714644 38.5881 0.000669352 35.1653C-0.0155234 27.9142 0.26623 22.1237 0.395772 14.7889C0.486451 9.49701 0.606277 5.45327 0.810305 2.01432C0.894507 0.611717 1.70738 -0.108886 3.12586 0.0133597C6.26077 0.283586 8.94661 0.435857 11.1834 0.470171C14.925 0.525932 17.6237 0.641744 19.2797 0.817605C19.9166 0.88409 22.7784 1.02349 27.8651 1.23581C31.0389 1.36663 34.6552 1.62936 38.7142 2.02397C39.2691 2.07759 40.9866 2.11297 43.8667 2.13013C46.4252 2.14622 48.025 2.75744 47.8631 5.47257C47.7076 8.0365 48.0542 10.906 47.9376 13.322C47.7109 17.9866 48.0574 22.9762 47.8728 27.7566C47.808 29.4273 47.7357 33.1911 47.6558 39.0482C47.6407 40.0304 47.6699 40.9237 47.7433 41.7279C47.9182 43.6999 48.1772 44.9996 47.8242 46.6982C47.4907 48.3163 46.396 48.001 44.8286 47.9238C42.9567 47.8273 40.8678 47.689 39.1579 47.6665C28.2354 47.5271 20.6302 47.437 16.3424 47.3962C12.1193 47.3544 7.03802 47.57 2.51702 47.5925C1.79158 47.5946 1.26262 47.5292 0.930131 47.3962C0.877548 47.3762 0.830164 47.3447 0.791485 47.3041C0.752805 47.2634 0.72382 47.2147 0.706672 47.1614ZM41.752 6.07415C32.9194 5.40073 24.4646 4.80344 16.3877 4.28229C12.4302 4.02815 8.09379 3.94772 4.30145 4.05388C4.22011 4.05557 4.14268 4.08919 4.08577 4.14753C4.02885 4.20586 3.997 4.28428 3.99703 4.36593C3.99919 11.8894 4.04561 17.2864 4.13629 20.557C4.18379 22.2791 4.17731 23.7611 4.11686 25.0028C3.99811 27.4692 3.94953 28.9533 3.97112 29.4551C4.06828 31.7199 3.74442 35.1588 3.80596 37.607C3.86209 39.7216 3.89448 41.4909 3.90311 42.915C3.90354 42.9615 3.91317 43.0074 3.93147 43.0502C3.94976 43.0929 3.97636 43.1317 4.00974 43.1643C4.04312 43.1968 4.08263 43.2225 4.12602 43.2399C4.1694 43.2573 4.21581 43.2661 4.26259 43.2656C6.00925 43.2506 7.69653 43.1756 9.32443 43.0404C10.6026 42.9354 12.5727 42.9375 15.2348 43.0469C19.6154 43.227 24.5542 43.5037 30.0511 43.8769C30.919 43.9348 32.7132 43.9508 34.0442 43.8865C37.1403 43.7364 40.3076 43.8114 43.5461 44.1117C43.6025 44.117 43.6593 44.1112 43.7135 44.0947C43.7676 44.0782 43.8179 44.0512 43.8615 44.0154C43.9051 43.9795 43.9412 43.9355 43.9676 43.8858C43.9941 43.8361 44.0104 43.7817 44.0157 43.7257C44.033 43.5262 44.0405 43.3804 44.0384 43.2882C43.7599 36.095 43.5105 30.0825 43.6854 22.7606C43.8236 17.043 43.9002 13.9761 43.9153 13.5601C43.9704 12.032 43.6789 9.98599 43.7113 8.95334C43.7437 7.89817 43.8117 7.40598 44.0189 6.38298C44.0274 6.33955 44.0258 6.29476 44.0142 6.25206C44.0025 6.20935 43.9812 6.16987 43.9518 6.13663C43.9224 6.10339 43.8857 6.07729 43.8446 6.06032C43.8035 6.04336 43.759 6.03598 43.7145 6.03876C42.866 6.09881 42.2118 6.11061 41.752 6.07415Z" fill="#FFB60E"/>
<path d="M10.7367 38.1828C10.5337 38.0349 10.4226 37.8204 10.4031 37.5394C10.2865 35.9856 10.2153 33.9783 10.2477 32.759C10.4139 26.7476 10.4031 20.4991 10.2153 14.0137C10.1861 12.981 10.3286 12.0706 11.3391 11.5784C11.9846 11.2653 12.6895 11.1474 13.4538 11.2246C15.7985 11.4648 18.0666 11.5645 20.258 11.5237C26.1003 11.4165 29.7437 11.4144 31.1881 11.5173C32.097 11.5817 33.9635 11.7489 36.7875 12.0192C36.974 12.0364 37.1518 12.1056 37.3007 12.2188C37.4496 12.332 37.5636 12.4847 37.6295 12.6593C37.9793 13.5955 38.2416 14.5348 38.2222 15.5964C38.206 16.4811 38.151 17.5202 38.2999 18.6268C38.5936 20.823 38.6616 23.1156 38.504 25.5047C38.2989 28.6209 37.961 32.1607 37.4903 36.124C37.3996 36.8853 36.998 37.3689 36.2856 37.5748C35.0808 37.9223 33.3709 38.1056 31.8455 38.1153C21.6916 38.1796 14.9954 38.2633 11.7568 38.3662C11.2667 38.3834 10.9267 38.3222 10.7367 38.1828ZM13.4344 14.4544C13.32 16.6505 13.361 18.7019 13.5575 20.6085C14.0001 24.93 13.972 29.4262 13.4733 34.0973C13.4674 34.1511 13.4729 34.2056 13.4896 34.2571C13.5062 34.3087 13.5336 34.3562 13.57 34.3965C13.6063 34.4369 13.6508 34.4692 13.7005 34.4913C13.7503 34.5135 13.8041 34.525 13.8586 34.5251H33.1345C33.2021 34.5251 33.269 34.5119 33.3315 34.4862C33.394 34.4605 33.4507 34.4228 33.4986 34.3753C33.5464 34.3278 33.5843 34.2714 33.6102 34.2094C33.6361 34.1473 33.6494 34.0808 33.6494 34.0136C33.6407 31.0647 33.7293 27.8145 33.9149 24.263C34.0143 22.3349 34.1201 20.8133 34.2323 19.6981C34.4374 17.6585 34.5227 16.124 34.4882 15.0946C34.4874 15.0493 34.4691 15.0061 34.4372 14.9738C34.4053 14.9414 34.3621 14.9225 34.3165 14.9209C32.3604 14.8522 30.345 14.8662 28.2702 14.9627C26.0615 15.0624 21.5372 14.5284 18.3797 14.4641C17.9133 14.4544 17.5312 14.6056 17.1231 14.4608C16.9979 14.4158 16.7366 14.3729 16.3394 14.3322C15.5168 14.2507 14.6694 14.1842 13.7971 14.1327C13.7517 14.1301 13.7063 14.1364 13.6634 14.1512C13.6206 14.166 13.5811 14.189 13.5474 14.2189C13.5136 14.2488 13.4863 14.2851 13.4669 14.3255C13.4475 14.3659 13.4364 14.4097 13.4344 14.4544Z" fill="#FFB60E"/>
<path d="M19.896 28.036C19.552 28.036 19.28 27.936 19.08 27.736C18.88 27.536 18.78 27.264 18.78 26.92V20.716C18.868 20.7 19.008 20.68 19.2 20.656C19.392 20.624 19.576 20.608 19.752 20.608C19.936 20.608 20.096 20.624 20.232 20.656C20.376 20.68 20.496 20.728 20.592 20.8C20.688 20.872 20.76 20.972 20.808 21.1C20.856 21.228 20.88 21.396 20.88 21.604V26.344H23.628C23.684 26.432 23.736 26.552 23.784 26.704C23.832 26.848 23.856 27 23.856 27.16C23.856 27.48 23.788 27.708 23.652 27.844C23.516 27.972 23.336 28.036 23.112 28.036H19.896Z" fill="white"/>
<path d="M27.5461 20.786C27.8901 20.7875 28.1617 20.8886 28.3609 21.0894C28.56 21.2903 28.6589 21.5627 28.6575 21.9067L28.6317 28.1106C28.5436 28.1262 28.4035 28.1457 28.2114 28.1689C28.0193 28.2001 27.8352 28.2153 27.6592 28.2146C27.4752 28.2138 27.3153 28.1971 27.1795 28.1646C27.0356 28.14 26.9158 28.0915 26.8201 28.0191C26.7244 27.9467 26.6528 27.8464 26.6053 27.7182C26.5578 27.59 26.5345 27.4219 26.5354 27.2139L26.5551 22.4739L23.8071 22.4625C23.7515 22.3743 23.7 22.2541 23.6526 22.1019C23.6052 21.9577 23.5819 21.8056 23.5825 21.6456C23.5839 21.3256 23.6528 21.0979 23.7894 20.9624C23.9259 20.835 24.1062 20.7717 24.3302 20.7727L27.5461 20.786Z" fill="white"/>
<path d="M65.826 16.6H69.39V29.096H77.112V32H65.826V16.6ZM84.9274 32.176C83.6807 32.176 82.5587 31.9193 81.5614 31.406C80.5787 30.878 79.8087 30.152 79.2514 29.228C78.6941 28.304 78.4154 27.2553 78.4154 26.082C78.4154 24.9087 78.6941 23.86 79.2514 22.936C79.8087 22.012 80.5787 21.2933 81.5614 20.78C82.5587 20.252 83.6807 19.988 84.9274 19.988C86.1741 19.988 87.2887 20.252 88.2714 20.78C89.2541 21.2933 90.0241 22.012 90.5814 22.936C91.1387 23.86 91.4174 24.9087 91.4174 26.082C91.4174 27.2553 91.1387 28.304 90.5814 29.228C90.0241 30.152 89.2541 30.878 88.2714 31.406C87.2887 31.9193 86.1741 32.176 84.9274 32.176ZM84.9274 29.36C85.8074 29.36 86.5261 29.0667 87.0834 28.48C87.6554 27.8787 87.9414 27.0793 87.9414 26.082C87.9414 25.0847 87.6554 24.2927 87.0834 23.706C86.5261 23.1047 85.8074 22.804 84.9274 22.804C84.0474 22.804 83.3214 23.1047 82.7494 23.706C82.1774 24.2927 81.8914 25.0847 81.8914 26.082C81.8914 27.0793 82.1774 27.8787 82.7494 28.48C83.3214 29.0667 84.0474 29.36 84.9274 29.36ZM106.441 20.164V30.02C106.441 32.1907 105.877 33.804 104.747 34.86C103.618 35.916 101.968 36.444 99.7974 36.444C98.6534 36.444 97.5681 36.3047 96.5414 36.026C95.5148 35.7473 94.6641 35.344 93.9894 34.816L95.3534 32.352C95.8521 32.7627 96.4828 33.0853 97.2454 33.32C98.0081 33.5693 98.7708 33.694 99.5334 33.694C100.721 33.694 101.594 33.4227 102.151 32.88C102.723 32.352 103.009 31.5453 103.009 30.46V29.954C102.115 30.9367 100.868 31.428 99.2694 31.428C98.1841 31.428 97.1868 31.1933 96.2774 30.724C95.3828 30.24 94.6714 29.5653 94.1434 28.7C93.6154 27.8347 93.3514 26.8373 93.3514 25.708C93.3514 24.5787 93.6154 23.5813 94.1434 22.716C94.6714 21.8507 95.3828 21.1833 96.2774 20.714C97.1868 20.23 98.1841 19.988 99.2694 19.988C100.985 19.988 102.291 20.5527 103.185 21.682V20.164H106.441ZM99.9514 28.612C100.861 28.612 101.601 28.348 102.173 27.82C102.76 27.2773 103.053 26.5733 103.053 25.708C103.053 24.8427 102.76 24.146 102.173 23.618C101.601 23.0753 100.861 22.804 99.9514 22.804C99.0421 22.804 98.2941 23.0753 97.7074 23.618C97.1208 24.146 96.8274 24.8427 96.8274 25.708C96.8274 26.5733 97.1208 27.2773 97.7074 27.82C98.2941 28.348 99.0421 28.612 99.9514 28.612ZM110.156 20.164H113.588V32H110.156V20.164ZM111.872 18.514C111.241 18.514 110.728 18.3307 110.332 17.964C109.936 17.5973 109.738 17.1427 109.738 16.6C109.738 16.0573 109.936 15.6027 110.332 15.236C110.728 14.8693 111.241 14.686 111.872 14.686C112.502 14.686 113.016 14.862 113.412 15.214C113.808 15.566 114.006 16.006 114.006 16.534C114.006 17.106 113.808 17.5827 113.412 17.964C113.016 18.3307 112.502 18.514 111.872 18.514ZM123.013 32.176C121.752 32.176 120.615 31.9193 119.603 31.406C118.606 30.878 117.821 30.152 117.249 29.228C116.692 28.304 116.413 27.2553 116.413 26.082C116.413 24.9087 116.692 23.86 117.249 22.936C117.821 22.012 118.606 21.2933 119.603 20.78C120.615 20.252 121.752 19.988 123.013 19.988C124.26 19.988 125.345 20.252 126.269 20.78C127.208 21.2933 127.89 22.034 128.315 23.002L125.653 24.432C125.037 23.3467 124.15 22.804 122.991 22.804C122.096 22.804 121.356 23.0973 120.769 23.684C120.182 24.2707 119.889 25.07 119.889 26.082C119.889 27.094 120.182 27.8933 120.769 28.48C121.356 29.0667 122.096 29.36 122.991 29.36C124.164 29.36 125.052 28.8173 125.653 27.732L128.315 29.184C127.89 30.1227 127.208 30.856 126.269 31.384C125.345 31.912 124.26 32.176 123.013 32.176ZM161.08 16.6H164.644V29.096H172.366V32H161.08V16.6ZM174.635 20.164H178.067V32H174.635V20.164ZM176.351 18.514C175.72 18.514 175.207 18.3307 174.811 17.964C174.415 17.5973 174.217 17.1427 174.217 16.6C174.217 16.0573 174.415 15.6027 174.811 15.236C175.207 14.8693 175.72 14.686 176.351 14.686C176.982 14.686 177.495 14.862 177.891 15.214C178.287 15.566 178.485 16.006 178.485 16.534C178.485 17.106 178.287 17.5827 177.891 17.964C177.495 18.3307 176.982 18.514 176.351 18.514ZM188.966 19.988C190.433 19.988 191.614 20.428 192.508 21.308C193.418 22.188 193.872 23.4933 193.872 25.224V32H190.44V25.752C190.44 24.8133 190.235 24.1167 189.824 23.662C189.414 23.1927 188.82 22.958 188.042 22.958C187.177 22.958 186.488 23.2293 185.974 23.772C185.461 24.3 185.204 25.092 185.204 26.148V32H181.772V20.164H185.05V21.55C185.505 21.0513 186.07 20.67 186.744 20.406C187.419 20.1273 188.16 19.988 188.966 19.988ZM203.594 29.426C204.21 29.426 204.753 29.338 205.222 29.162C205.706 28.9713 206.153 28.678 206.564 28.282L208.39 30.262C207.275 31.538 205.647 32.176 203.506 32.176C202.171 32.176 200.991 31.9193 199.964 31.406C198.937 30.878 198.145 30.152 197.588 29.228C197.031 28.304 196.752 27.2553 196.752 26.082C196.752 24.9233 197.023 23.882 197.566 22.958C198.123 22.0193 198.879 21.2933 199.832 20.78C200.8 20.252 201.885 19.988 203.088 19.988C204.217 19.988 205.244 20.23 206.168 20.714C207.092 21.1833 207.825 21.8727 208.368 22.782C208.925 23.6767 209.204 24.74 209.204 25.972L200.448 27.666C200.697 28.2527 201.086 28.6927 201.614 28.986C202.157 29.2793 202.817 29.426 203.594 29.426ZM203.088 22.584C202.223 22.584 201.519 22.8627 200.976 23.42C200.433 23.9773 200.147 24.7473 200.118 25.73L205.882 24.608C205.721 23.992 205.391 23.5007 204.892 23.134C204.393 22.7673 203.792 22.584 203.088 22.584ZM216.013 32.176C215.03 32.176 214.07 32.0587 213.131 31.824C212.192 31.5747 211.444 31.2667 210.887 30.9L212.031 28.436C212.559 28.7733 213.197 29.052 213.945 29.272C214.693 29.4773 215.426 29.58 216.145 29.58C217.597 29.58 218.323 29.2207 218.323 28.502C218.323 28.1647 218.125 27.9227 217.729 27.776C217.333 27.6293 216.724 27.5047 215.903 27.402C214.935 27.2553 214.136 27.0867 213.505 26.896C212.874 26.7053 212.324 26.368 211.855 25.884C211.4 25.4 211.173 24.7107 211.173 23.816C211.173 23.068 211.386 22.408 211.811 21.836C212.251 21.2493 212.882 20.7947 213.703 20.472C214.539 20.1493 215.522 19.988 216.651 19.988C217.487 19.988 218.316 20.0833 219.137 20.274C219.973 20.45 220.662 20.6993 221.205 21.022L220.061 23.464C219.02 22.8773 217.883 22.584 216.651 22.584C215.918 22.584 215.368 22.6867 215.001 22.892C214.634 23.0973 214.451 23.3613 214.451 23.684C214.451 24.0507 214.649 24.3073 215.045 24.454C215.441 24.6007 216.072 24.74 216.937 24.872C217.905 25.0333 218.697 25.2093 219.313 25.4C219.929 25.576 220.464 25.906 220.919 26.39C221.374 26.874 221.601 27.5487 221.601 28.414C221.601 29.1473 221.381 29.8 220.941 30.372C220.501 30.944 219.856 31.3913 219.005 31.714C218.169 32.022 217.172 32.176 216.013 32.176Z" fill="white"/>
<path d="M149.639 32.264L147.791 30.548C146.325 31.692 144.609 32.264 142.643 32.264C141.529 32.264 140.524 32.088 139.629 31.736C138.735 31.3693 138.031 30.8633 137.517 30.218C137.019 29.5727 136.769 28.8467 136.769 28.04C136.769 27.0867 137.033 26.2507 137.561 25.532C138.104 24.7987 138.969 24.102 140.157 23.442C139.6 22.87 139.197 22.3273 138.947 21.814C138.698 21.286 138.573 20.7433 138.573 20.186C138.573 19.438 138.771 18.778 139.167 18.206C139.563 17.634 140.121 17.194 140.839 16.886C141.573 16.5633 142.416 16.402 143.369 16.402C144.704 16.402 145.775 16.7247 146.581 17.37C147.388 18.0007 147.791 18.8587 147.791 19.944C147.791 20.736 147.549 21.44 147.065 22.056C146.596 22.672 145.833 23.266 144.777 23.838L147.593 26.456C147.931 25.752 148.187 24.9527 148.363 24.058L151.113 24.916C150.82 26.28 150.351 27.446 149.705 28.414L151.509 30.086L149.639 32.264ZM143.369 18.734C142.856 18.734 142.445 18.866 142.137 19.13C141.844 19.394 141.697 19.7313 141.697 20.142C141.697 20.45 141.778 20.7433 141.939 21.022C142.101 21.286 142.416 21.6453 142.885 22.1C143.633 21.704 144.154 21.352 144.447 21.044C144.741 20.7213 144.887 20.3767 144.887 20.01C144.887 19.6287 144.755 19.3207 144.491 19.086C144.227 18.8513 143.853 18.734 143.369 18.734ZM142.885 29.58C143.956 29.58 144.917 29.2793 145.767 28.678L142.049 25.202C141.36 25.598 140.869 25.9867 140.575 26.368C140.282 26.7493 140.135 27.182 140.135 27.666C140.135 28.238 140.385 28.7 140.883 29.052C141.382 29.404 142.049 29.58 142.885 29.58Z" fill="#EBAA00"/>
</svg>
