<svg id="visual" viewBox="0 0 900 600" width="900" height="600" xmlns="http://www.w3.org/2000/svg" xmlns:xlink="http://www.w3.org/1999/xlink" version="1.1"><rect x="0" y="0" width="900" height="600" fill="#0D1A1F"></rect><path d="M0 66L15 74.3C30 82.7 60 99.3 90 100.7C120 102 150 88 180 78.7C210 69.3 240 64.7 270 62.8C300 61 330 62 360 71C390 80 420 97 450 93.2C480 89.3 510 64.7 540 66.7C570 68.7 600 97.3 630 113C660 128.7 690 131.3 720 117.5C750 103.7 780 73.3 810 62.8C840 52.3 870 61.7 885 66.3L900 71L900 0L885 0C870 0 840 0 810 0C780 0 750 0 720 0C690 0 660 0 630 0C600 0 570 0 540 0C510 0 480 0 450 0C420 0 390 0 360 0C330 0 300 0 270 0C240 0 210 0 180 0C150 0 120 0 90 0C60 0 30 0 15 0L0 0Z" fill="#16262E" stroke-linecap="round" stroke-linejoin="miter"></path></svg>